<svg xmlns="http://www.w3.org/2000/svg" width="24" height="24" viewBox="0 0 24 24">
    <g fill="none" fill-rule="evenodd">
        <g>
            <g>
                <g>
                    <g>
                        <g>
                            <g>
                                <path d="M0 0L24 0 24 24 0 24z" transform="translate(-1154.000000, -229.000000) translate(290.000000, 169.000000) translate(0.000000, 44.000000) translate(856.000000, 8.000000) translate(8.000000, 8.000000)"/>
                            </g>
                            <g fill="#797D85">
                                <g>
                                    <path d="M0 0H2V2H0zM4 0H18V2H4zM0 4H2V6H0zM4 4H12V6H4zM0 8H2V10H0zM4 8H11V10H4zM0 12H2V14H0zM4 12H9V14H4z" transform="translate(-1154.000000, -229.000000) translate(290.000000, 169.000000) translate(0.000000, 44.000000) translate(856.000000, 8.000000) translate(8.000000, 8.000000) translate(2.000000, 4.000000)"/>
                                </g>
                                <path d="M11 13.117h3.033V4h3.934v9.117H21L16 17l-5-3.883z" transform="translate(-1154.000000, -229.000000) translate(290.000000, 169.000000) translate(0.000000, 44.000000) translate(856.000000, 8.000000) translate(8.000000, 8.000000) translate(2.000000, 4.000000)"/>
                            </g>
                        </g>
                    </g>
                </g>
            </g>
        </g>
    </g>
</svg>
