<svg width="20" height="20" viewBox="0 0 20 20" fill="none" xmlns="http://www.w3.org/2000/svg">
<path fill-rule="evenodd" clip-rule="evenodd" d="M10.75 2.70001C10.75 2.2858 10.4142 1.95001 10 1.95001C9.58579 1.95001 9.25 2.2858 9.25 2.70001L9.25 10.5356L6.53236 7.79705C6.24059 7.50304 5.76572 7.50122 5.47171 7.79299C5.17769 8.08476 5.17587 8.55963 5.46764 8.85364L9.59471 13.0125C9.73552 13.1544 9.92716 13.2342 10.1271 13.2342C10.327 13.2342 10.5186 13.1544 10.6594 13.0125L14.7865 8.85364C15.0783 8.55963 15.0764 8.08476 14.7824 7.79299C14.4884 7.50122 14.0135 7.50304 13.7218 7.79706L10.75 10.7917V2.70001ZM3.75 16.3426L3.75 12.0191C3.75 11.6049 3.41421 11.2691 3 11.2691C2.58579 11.2691 2.25 11.6049 2.25 12.0191V16.3815C2.25 16.3958 2.25041 16.4101 2.25123 16.4244C2.2777 16.8858 2.51237 17.2913 2.85877 17.5648C3.19773 17.8324 3.62517 17.9622 4.04876 17.9491L16.4514 17.9491C16.8749 17.962 17.3022 17.8321 17.641 17.5646C17.9873 17.2913 18.2219 16.8861 18.2487 16.425C18.2496 16.4105 18.25 16.396 18.25 16.3815V12.0191C18.25 11.6049 17.9142 11.2691 17.5 11.2691C17.0858 11.2691 16.75 11.6049 16.75 12.0191V16.3422L16.7493 16.3438L16.7473 16.3479C16.7429 16.356 16.7327 16.3706 16.7116 16.3873C16.6667 16.4227 16.5887 16.4534 16.4937 16.4497C16.4839 16.4493 16.4741 16.4491 16.4643 16.4491L4.03571 16.4491C4.02576 16.4491 4.01581 16.4493 4.00586 16.4497C3.91092 16.4535 3.83301 16.4228 3.78822 16.3875C3.76714 16.3708 3.75703 16.3563 3.75267 16.3483C3.75142 16.346 3.75057 16.3441 3.75 16.3426Z" fill="#676879"/>
</svg>
