<svg width="20" height="20" viewBox="0 0 20 20">
    <g fill="none" fill-rule="evenodd">
        <g>
            <path d="M0 0H20V20H0z"></path>
            <path fill="currentColor" d="M10.398 3.613l.088.073 5.327 5.301c.25.249.25.652 0 .9-.222.22-.567.245-.816.074l-.088-.074-4.236-4.214v10.17c0 .363-.286.657-.639.657-.318 0-.581-.238-.63-.55l-.01-.107V5.656L5.088 9.89c-.223.22-.568.242-.816.068l-.088-.074c-.22-.222-.243-.565-.068-.812l.074-.087 5.395-5.302c.222-.218.565-.241.813-.07z" transform="rotate(90 10 10)">
            </path>
        </g>
    </g>
</svg>
