<svg width="20" height="20" viewBox="0 0 20 20" fill="none" xmlns="http://www.w3.org/2000/svg">
<path fill-rule="evenodd" clip-rule="evenodd" d="M4.64896 6.91473C6.26045 4.18522 9.67945 2.99372 12.6868 4.25094C15.9729 5.62468 17.5229 9.40179 16.149 12.6873C14.7752 15.9729 10.9975 17.5228 7.7114 16.1491C5.76819 15.3367 4.4318 13.6847 3.94814 11.7875C3.84582 11.3861 3.43749 11.1437 3.03611 11.246C2.63474 11.3484 2.39231 11.7567 2.49464 12.1581C3.08965 14.492 4.73671 16.5313 7.13284 17.533C11.1831 19.2262 15.8394 17.3159 17.5329 13.266C19.2264 9.216 17.3157 4.56025 13.2654 2.86701C9.78854 1.41353 5.86517 2.6154 3.75267 5.54663L3.75 4.45764C3.74898 4.04343 3.41237 3.70847 2.99816 3.70948C2.58395 3.7105 2.24899 4.04711 2.25 4.46132L2.25788 7.6706C2.2589 8.08482 2.59551 8.41978 3.00972 8.41876L6.2194 8.41088C6.63362 8.40987 6.96858 8.07326 6.96756 7.65905C6.96655 7.24483 6.62994 6.90987 6.21572 6.91089L4.64896 6.91473Z" fill="#676879"/>
</svg>
