<svg xmlns="http://www.w3.org/2000/svg" xmlns:xlink="http://www.w3.org/1999/xlink" width="24" height="24" viewBox="0 0 24 24">
    <defs>
        <path id="k0ezhnuxha" d="M19.259 12.931c.039-.304.068-.608.068-.931 0-.323-.03-.627-.068-.931l2.06-1.568c.186-.142.235-.399.118-.607l-1.954-3.288c-.117-.208-.38-.284-.595-.208l-2.432.95c-.508-.38-1.055-.694-1.65-.931l-.372-2.518c-.03-.228-.234-.399-.479-.399H10.05c-.244 0-.45.171-.479.399L9.2 5.417c-.597.237-1.144.56-1.651.93l-2.432-.95c-.225-.085-.479 0-.596.21L2.568 8.893c-.127.21-.069.466.117.608l2.06 1.568c-.038.304-.068.617-.068.931 0 .313.03.627.069.931l-2.061 1.568c-.186.142-.234.399-.117.607l1.953 3.287c.117.21.38.285.596.21l2.432-.95c.507.38 1.054.693 1.65.93l.371 2.518c.03.228.235.399.479.399h3.906c.245 0 .45-.171.479-.399l.371-2.517c.596-.238 1.143-.561 1.65-.931l2.433.95c.224.085.478 0 .595-.21l1.954-3.287c.117-.208.068-.465-.118-.607l-2.06-1.568zM12 16c-2.206 0-4-1.794-4-4s1.794-4 4-4 4 1.794 4 4-1.794 4-4 4z"/>
    </defs>
    <g fill="none" fill-rule="evenodd">
        <g>
            <path d="M0 0L24 0 24 24 0 24z"/>
            <g fill="#797D85">
                <use xlink:href="#k0ezhnuxha"/>
                <use xlink:href="#k0ezhnuxha"/>
            </g>
        </g>
    </g>
</svg>
