<svg xmlns="http://www.w3.org/2000/svg" xmlns:xlink="http://www.w3.org/1999/xlink" width="24" height="24" viewBox="0 0 24 24">
    <defs>
        <path id="c4j3xciu3a" d="M10.89 3c2.08 0 4.08.813 5.58 2.315 2.801 2.807 3.064 7.226.72 10.337l-.05.063 3.566 3.572.084.095c.28.36.28.869 0 1.229l-.083.094c-.19.191-.445.295-.71.295-.22 0-.433-.072-.608-.206l-.1-.088-3.562-3.569-.136.106c-1.281.958-2.807 1.496-4.385 1.56l-.316.006c-2.078 0-4.08-.813-5.58-2.315-3.08-3.088-3.08-8.092 0-11.179C6.81 3.813 8.812 3 10.89 3zm0 2.006c-1.573 0-3.05.613-4.162 1.728-2.294 2.299-2.294 6.042 0 8.341 1.048 1.05 2.417 1.654 3.886 1.721l.276.006.277-.006c1.377-.063 2.667-.598 3.685-1.53l.2-.19c2.295-2.3 2.295-6.043 0-8.343-1.112-1.114-2.588-1.727-4.162-1.727z"/>
    </defs>
    <g fill="none" fill-rule="evenodd">
        <g>
            <g>
                <g>
                    <g>
                        <g>
                            <path d="M0 0L24 0 24 24 0 24z" transform="translate(-314 -263) translate(290 198) translate(0 52) translate(24 12) translate(0 1)"/>
                            <g fill="#8995AE" fill-rule="nonzero" transform="translate(-314 -263) translate(290 198) translate(0 52) translate(24 12) translate(0 1)">
                                <use xlink:href="#c4j3xciu3a"/>
                                <use xlink:href="#c4j3xciu3a"/>
                            </g>
                        </g>
                    </g>
                </g>
            </g>
        </g>
    </g>
</svg>
