<svg xmlns="http://www.w3.org/2000/svg" width="24" height="24" viewBox="0 0 24 24">
    <g fill="none" fill-rule="evenodd">
        <g>
            <g>
                <g>
                    <g>
                        <g>
                            <g>
                                <g>
                                    <g>
                                        <path d="M0 0H24V24H0z" transform="translate(-758.000000, -1258.000000) translate(361.000000, 89.000000) translate(27.000000, 84.000000) translate(1.000000, 423.000000) translate(0.000000, 426.000000) translate(1.000000, 194.000000) translate(-0.003101, 34.000000) translate(368.000000, 8.000000)"/>
                                        <path fill="#797D85" fill-rule="nonzero" d="M20.441 16.845c.447 0 .819.326.888.754l.012.146v3.288c0 .448-.326.819-.754.889l-.146.011H4.331c-.448 0-.819-.326-.889-.754l-.011-.146v-3.288c0-.497.402-.9.9-.9.447 0 .818.326.888.754l.012.146v2.388h14.31v-2.388c0-.447.326-.818.754-.888l.146-.012zM12.511 3.25l.125.104 3.938 3.938.166.166.535.535.7.7.633.633c.351.351.351.921 0 1.273-.312.312-.797.347-1.148.104l-.125-.104L12.9 6.163v8.815c0 .387-.403.702-.9.702-.447 0-.818-.255-.888-.588l-.012-.114V6.163l-4.435 4.435c-.313.312-.798.347-1.148.104l-.125-.104c-.312-.313-.347-.798-.104-1.148l.104-.125 5.972-5.972c.312-.312.797-.347 1.148-.104z" transform="translate(-758.000000, -1258.000000) translate(361.000000, 89.000000) translate(27.000000, 84.000000) translate(1.000000, 423.000000) translate(0.000000, 426.000000) translate(1.000000, 194.000000) translate(-0.003101, 34.000000) translate(368.000000, 8.000000)"/>
                                    </g>
                                </g>
                            </g>
                        </g>
                    </g>
                </g>
            </g>
        </g>
    </g>
</svg>
