<svg width="20" height="20" viewBox="0 0 20 20" fill="none" xmlns="http://www.w3.org/2000/svg">
<path d="M2 10C2 12.1217 2.84285 14.1566 4.34315 15.6569C5.84344 17.1571 7.87827 18 10 18C12.1217 18 14.1566 17.1571 15.6569 15.6569C17.1571 14.1566 18 12.1217 18 10C18 7.87827 17.1571 5.84344 15.6569 4.34315C14.1566 2.84285 12.1217 2 10 2C7.87827 2 5.84344 2.84285 4.34315 4.34315C2.84285 5.84344 2 7.87827 2 10Z" fill="#D83A52"/>
<path fill-rule="evenodd" clip-rule="evenodd" d="M8.25922 7.37521C8.01515 7.13113 7.61942 7.13111 7.37533 7.37518C7.13125 7.61925 7.13123 8.01498 7.3753 8.25907L9.11633 10.0002L7.37583 11.7408C7.13176 11.9849 7.13177 12.3806 7.37586 12.6247C7.61994 12.8688 8.01567 12.8688 8.25974 12.6247L10.0002 10.8841L11.7406 12.6247C11.9847 12.8688 12.3804 12.8688 12.6245 12.6247C12.8686 12.3806 12.8686 11.9849 12.6245 11.7408L10.884 10.0002L12.6251 8.25907C12.8691 8.01498 12.8691 7.61925 12.625 7.37518C12.3809 7.13111 11.9852 7.13113 11.7411 7.37521L10.0002 9.11629L8.25922 7.37521Z" fill="white"/>
</svg>
