<svg xmlns="http://www.w3.org/2000/svg" width="20" height="20" viewBox="0 0 20 20">
    <g fill="none" fill-rule="evenodd">
        <g>
            <g>
                <g>
                    <g>
                        <path stroke="#797D85" d="M11.363 2.5l4.47 4.47v9.53c0 .552-.447 1-1 1H5.167c-.553 0-1-.448-1-1v-13c0-.552.447-1 1-1h6.196z" transform="translate(-541.000000, -574.000000) translate(523.000000, 506.000000) translate(18.000000, 68.000000) translate(0.000000, 0.000000)"/>
                        <g fill="#797D85">
                            <path d="M0 0H1.25V2.5H0zM1.25 2.5H2.5V3.75H1.25zM0 3.75H1.25V5H0zM1.25 5H2.5V6.25H1.25zM0 6.25H1.25V7.5H0zM1.25 7.5H2.5V8.75H1.25z" transform="translate(-541.000000, -574.000000) translate(523.000000, 506.000000) translate(18.000000, 68.000000) translate(0.000000, 0.000000) translate(6.250000, 2.500000)"/>
                        </g>
                        <path stroke="#797D85" d="M10.843 2.5L10.843 7.518 16.25 7.518" transform="translate(-541.000000, -574.000000) translate(523.000000, 506.000000) translate(18.000000, 68.000000) translate(0.000000, 0.000000)"/>
                        <path fill="#797D85" d="M6.25 11.25h2.5V14c0 .552-.448 1-1 1h-.5c-.552 0-1-.448-1-1v-2.75z" transform="translate(-541.000000, -574.000000) translate(523.000000, 506.000000) translate(18.000000, 68.000000) translate(0.000000, 0.000000)"/>
                    </g>
                </g>
            </g>
        </g>
    </g>
</svg>
