<svg width="16" height="16" viewBox="0 0 16 16" fill="none" xmlns="http://www.w3.org/2000/svg">
<path d="M8.87993 2.14349C8.79806 1.98015 8.67236 1.8428 8.5169 1.74682C8.36143 1.65084 8.18232 1.60001 7.99961 1.60001C7.8169 1.60001 7.63779 1.65084 7.48232 1.74682C7.32686 1.8428 7.20116 1.98015 7.11929 2.14349L1.70346 12.9752C1.62846 13.1252 1.59306 13.292 1.60061 13.4596C1.60816 13.6272 1.65841 13.7901 1.7466 13.9329C1.83478 14.0756 1.95798 14.1934 2.1045 14.2752C2.25102 14.357 2.416 14.3999 2.58378 14.4H13.4154C13.5832 14.3999 13.7482 14.357 13.8947 14.2752C14.0412 14.1934 14.1644 14.0756 14.2526 13.9329C14.3408 13.7901 14.3911 13.6272 14.3986 13.4596C14.4062 13.292 14.3708 13.1252 14.2958 12.9752L8.87993 2.14349Z" fill="#E22134"/>
<path d="M8 6.16106V8.74588" stroke="white" stroke-width="1.6" stroke-linecap="round" stroke-linejoin="round"/>
<path d="M7.56934 11.3307C7.56934 11.445 7.61472 11.5545 7.69552 11.6353C7.77631 11.7161 7.88588 11.7615 8.00014 11.7615C8.1144 11.7615 8.22397 11.7161 8.30477 11.6353C8.38556 11.5545 8.43095 11.445 8.43095 11.3307C8.43095 11.2165 8.38556 11.1069 8.30477 11.0261C8.22397 10.9453 8.1144 10.8999 8.00014 10.8999C7.88588 10.8999 7.77631 10.9453 7.69552 11.0261C7.61472 11.1069 7.56934 11.2165 7.56934 11.3307Z" fill="white" stroke="white" stroke-width="0.64" stroke-linecap="round" stroke-linejoin="round"/>
</svg>
