<svg width="20" height="20" viewBox="0 0 20 20" fill="none" xmlns="http://www.w3.org/2000/svg">
<path fill-rule="evenodd" clip-rule="evenodd" d="M6.77758 2C6.39775 2 6.08984 2.30791 6.08984 2.68774V14.4862C6.08984 14.8661 6.39775 15.174 6.77758 15.174H16.6199C16.9997 15.174 17.3076 14.8661 17.3076 14.4862V2.68774C17.3076 2.30791 16.9997 2 16.6199 2H6.77758ZM7.46532 13.7985V3.37547H15.9321V13.7985H7.46532ZM4.37547 5.57499C4.37547 5.19516 4.06756 4.88725 3.68774 4.88725C3.30791 4.88725 3 5.19516 3 5.57499V16.3342C3 16.7761 3.17551 17.1998 3.48792 17.5122C3.80032 17.8246 4.22404 18.0001 4.66585 18.0001H13.4689C13.8487 18.0001 14.1566 17.6922 14.1566 17.3124C14.1566 16.9325 13.8487 16.6246 13.4689 16.6246H4.66585C4.58884 16.6246 4.51498 16.594 4.46052 16.5396C4.40607 16.4851 4.37547 16.4113 4.37547 16.3342V5.57499ZM8.96094 6.76684C8.96094 6.38701 9.26885 6.0791 9.64867 6.0791H13.3166C13.6964 6.0791 14.0043 6.38701 14.0043 6.76684C14.0043 7.14666 13.6964 7.45457 13.3166 7.45457H9.64867C9.26885 7.45457 8.96094 7.14666 8.96094 6.76684ZM9.64867 8.83008C9.26885 8.83008 8.96094 9.13799 8.96094 9.51781C8.96094 9.89764 9.26885 10.2056 9.64867 10.2056H13.3166C13.6964 10.2056 14.0043 9.89764 14.0043 9.51781C14.0043 9.13799 13.6964 8.83008 13.3166 8.83008H9.64867Z" fill="#676879"/>
</svg>
