<svg width="16" height="16" viewBox="0 0 16 16" fill="none" xmlns="http://www.w3.org/2000/svg">
<path fill-rule="evenodd" clip-rule="evenodd" d="M6.26118 2.98182C6.26118 2.87136 6.35073 2.78182 6.46118 2.78182H7.81606H10.5259C10.5753 2.78182 10.623 2.80011 10.6597 2.83316L12.7526 4.71672C12.7947 4.75465 12.8188 4.80868 12.8188 4.86538V10.6909C12.8188 10.8014 12.7292 10.8909 12.6188 10.8909H6.46118C6.35072 10.8909 6.26118 10.8014 6.26118 10.6909V2.98182ZM6.46118 1.58182C5.68798 1.58182 5.06118 2.20862 5.06118 2.98182V3.90909H4.13345C3.36025 3.90909 2.73345 4.5359 2.73345 5.30909V13.0182C2.73345 13.7914 3.36025 14.4182 4.13345 14.4182H9.51527C10.2885 14.4182 10.9153 13.7914 10.9153 13.0182V12.0909H12.6188C13.392 12.0909 14.0188 11.4641 14.0188 10.6909V4.86538C14.0188 4.4685 13.8503 4.09027 13.5553 3.82477L11.4625 1.94121C11.2054 1.70984 10.8718 1.58182 10.5259 1.58182H7.81606H6.46118ZM9.71527 12.0909H6.46118C5.68798 12.0909 5.06118 11.4641 5.06118 10.6909V5.10909H4.13345C4.02299 5.10909 3.93345 5.19864 3.93345 5.30909V13.0182C3.93345 13.1286 4.02299 13.2182 4.13345 13.2182H9.51527C9.62572 13.2182 9.71527 13.1286 9.71527 13.0182V12.0909Z" fill="#676879"/>
</svg>
