<svg width="20" height="20" viewBox="0 0 20 20" fill="none" xmlns="http://www.w3.org/2000/svg">
<path fill-rule="evenodd" clip-rule="evenodd" d="M9.97069 2C7.85673 2 5.82936 2.83977 4.33456 4.33456C2.83977 5.82936 2 7.85673 2 9.97069C2 12.0846 2.83977 14.112 4.33456 15.6068C5.82936 17.1016 7.85673 17.9414 9.97069 17.9414C12.0846 17.9414 14.112 17.1016 15.6068 15.6068C17.1016 14.112 17.9414 12.0846 17.9414 9.97069C17.9414 7.85673 17.1016 5.82936 15.6068 4.33456C14.112 2.83977 12.0846 2 9.97069 2ZM5.39522 5.39522C6.60871 4.18173 8.25456 3.5 9.97069 3.5C11.6868 3.5 13.3327 4.18173 14.5462 5.39522C15.7597 6.60871 16.4414 8.25456 16.4414 9.97069C16.4414 11.6868 15.7597 13.3327 14.5462 14.5462C13.3327 15.7597 11.6868 16.4414 9.97069 16.4414C8.25456 16.4414 6.60871 15.7597 5.39522 14.5462C4.18173 13.3327 3.5 11.6868 3.5 9.97069C3.5 8.25456 4.18173 6.60871 5.39522 5.39522ZM6 9.25C5.58579 9.25 5.25 9.58579 5.25 10C5.25 10.4142 5.58579 10.75 6 10.75H14C14.4142 10.75 14.75 10.4142 14.75 10C14.75 9.58579 14.4142 9.25 14 9.25H6Z" fill="#999999"/>
</svg>
