<svg width="20" height="20" viewBox="0 0 20 20" fill="none" xmlns="http://www.w3.org/2000/svg">
<circle cx="10" cy="10" r="8" fill="#007E2B"/>
<path fill-rule="evenodd" clip-rule="evenodd" d="M9.39697 11.9047L9.15623 11.6745L8.91549 11.9047C9.04845 12.0318 9.26401 12.0318 9.39697 11.9047ZM9.15623 11.2143L7.5812 9.70857C7.44824 9.58147 7.23267 9.58147 7.09972 9.70857C6.96676 9.83567 6.96676 10.0417 7.09972 10.1688L8.91549 11.9047L9.15623 11.6745C9.39697 11.9047 9.39697 11.9047 9.39697 11.9047L12.9003 8.55561C13.0332 8.42851 13.0332 8.22243 12.9003 8.09533C12.7673 7.96823 12.5518 7.96823 12.4188 8.09533L9.15623 11.2143Z" fill="white"/>
<path d="M9.15623 11.6745L9.39697 11.9047M9.15623 11.6745L8.91549 11.9047M9.15623 11.6745C9.39697 11.9047 9.39697 11.9047 9.39697 11.9047M9.39697 11.9047C9.26401 12.0318 9.04845 12.0318 8.91549 11.9047M9.39697 11.9047L12.9003 8.55561C13.0332 8.42851 13.0332 8.22243 12.9003 8.09533C12.7673 7.96823 12.5518 7.96823 12.4188 8.09533L9.15623 11.2143L7.5812 9.70857C7.44824 9.58147 7.23267 9.58147 7.09972 9.70857C6.96676 9.83567 6.96676 10.0417 7.09972 10.1688L8.91549 11.9047" stroke="white" stroke-width="0.833333" stroke-linecap="round" stroke-linejoin="round"/>
</svg>
