<svg width="20" height="20" viewBox="0 0 20 20" fill="none" xmlns="http://www.w3.org/2000/svg">
<path d="M11.1004 2.67936C10.9981 2.47518 10.8409 2.3035 10.6466 2.18352C10.4523 2.06354 10.2284 2 10 2C9.77161 2 9.54773 2.06354 9.35339 2.18352C9.15906 2.3035 9.00194 2.47518 8.8996 2.67936L2.12982 16.2189C2.03607 16.4065 1.99181 16.615 2.00125 16.8245C2.01068 17.034 2.0735 17.2377 2.18373 17.4161C2.29397 17.5945 2.44797 17.7418 2.63111 17.844C2.81426 17.9462 3.02048 17.9999 3.23021 18H16.7698C16.9795 17.9999 17.1857 17.9462 17.3689 17.844C17.552 17.7418 17.706 17.5945 17.8163 17.4161C17.9265 17.2377 17.9893 17.034 17.9988 16.8245C18.0082 16.615 17.9639 16.4065 17.8702 16.2189L11.1004 2.67936Z" fill="#E22134"/>
<path d="M10 7.70129V10.9323" stroke="white" stroke-width="1.66667" stroke-linecap="round" stroke-linejoin="round"/>
<path d="M9.46149 14.1634C9.46149 14.3062 9.51822 14.4432 9.61921 14.5442C9.7202 14.6452 9.85717 14.7019 9.99999 14.7019C10.1428 14.7019 10.2798 14.6452 10.3808 14.5442C10.4818 14.4432 10.5385 14.3062 10.5385 14.1634C10.5385 14.0206 10.4818 13.8836 10.3808 13.7826C10.2798 13.6816 10.1428 13.6249 9.99999 13.6249C9.85717 13.6249 9.7202 13.6816 9.61921 13.7826C9.51822 13.8836 9.46149 14.0206 9.46149 14.1634Z" fill="white" stroke="white" stroke-width="0.666667" stroke-linecap="round" stroke-linejoin="round"/>
</svg>
