<svg width="20" height="20" viewBox="0 0 20 20" fill="none" xmlns="http://www.w3.org/2000/svg">
<path fill-rule="evenodd" clip-rule="evenodd" d="M9.97069 2C7.85673 2 5.82936 2.83977 4.33456 4.33456C2.83977 5.82936 2 7.85673 2 9.97069C2 12.0846 2.83977 14.112 4.33456 15.6068C5.82936 17.1016 7.85673 17.9414 9.97069 17.9414C12.0846 17.9414 14.112 17.1016 15.6068 15.6068C17.1016 14.112 17.9414 12.0846 17.9414 9.97069C17.9414 7.85673 17.1016 5.82936 15.6068 4.33456C14.112 2.83977 12.0846 2 9.97069 2ZM5.39522 5.39522C6.60871 4.18173 8.25456 3.5 9.97069 3.5C11.6868 3.5 13.3327 4.18173 14.5462 5.39522C15.7597 6.60871 16.4414 8.25456 16.4414 9.97069C16.4414 11.6868 15.7597 13.3327 14.5462 14.5462C13.3327 15.7597 11.6868 16.4414 9.97069 16.4414C8.25456 16.4414 6.60871 15.7597 5.39522 14.5462C4.18173 13.3327 3.5 11.6868 3.5 9.97069C3.5 8.25456 4.18173 6.60871 5.39522 5.39522ZM7.47272 7.47333C7.76562 7.18045 8.24049 7.18046 8.53338 7.47336L10.0063 8.94641L11.4793 7.47336C11.7722 7.18046 12.247 7.18045 12.5399 7.47333C12.8328 7.76621 12.8329 8.24109 12.54 8.53399L11.067 10.0071L12.5397 11.48C12.8326 11.7729 12.8326 12.2477 12.5397 12.5406C12.2468 12.8335 11.7719 12.8335 11.479 12.5406L10.0063 11.0678L8.53363 12.5406C8.24075 12.8335 7.76588 12.8335 7.47297 12.5406C7.18007 12.2477 7.18006 11.7729 7.47294 11.48L8.9457 10.0071L7.47268 8.53399C7.1798 8.24109 7.17982 7.76621 7.47272 7.47333Z" fill="#676879"/>
</svg>
