<svg width="16" height="16" viewBox="0 0 16 16" fill="none" xmlns="http://www.w3.org/2000/svg">
<path fill-rule="evenodd" clip-rule="evenodd" d="M7.97069 0C5.85673 0 3.82936 0.839767 2.33456 2.33456C0.839767 3.82936 0 5.85673 0 7.97069C0 10.0846 0.839767 12.112 2.33456 13.6068C3.82936 15.1016 5.85673 15.9414 7.97069 15.9414C10.0846 15.9414 12.112 15.1016 13.6068 13.6068C15.1016 12.112 15.9414 10.0846 15.9414 7.97069C15.9414 5.85673 15.1016 3.82936 13.6068 2.33456C12.112 0.839767 10.0846 0 7.97069 0ZM3.39522 3.39522C4.60871 2.18173 6.25456 1.5 7.97069 1.5C9.68682 1.5 11.3327 2.18173 12.5462 3.39522C13.7597 4.60871 14.4414 6.25456 14.4414 7.97069C14.4414 9.68682 13.7597 11.3327 12.5462 12.5462C11.3327 13.7597 9.68682 14.4414 7.97069 14.4414C6.25456 14.4414 4.60871 13.7597 3.39522 12.5462C2.18173 11.3327 1.5 9.68682 1.5 7.97069C1.5 6.25456 2.18173 4.60871 3.39522 3.39522ZM4 7.25C3.58579 7.25 3.25 7.58579 3.25 8C3.25 8.41421 3.58579 8.75 4 8.75H12C12.4142 8.75 12.75 8.41421 12.75 8C12.75 7.58579 12.4142 7.25 12 7.25H4Z" fill="#676879"/>
</svg>
