<svg xmlns="http://www.w3.org/2000/svg" width="24" height="24" viewBox="0 0 24 24">
    <g fill="none" fill-rule="evenodd">
        <g>
            <path d="M0 0H24V24H0z"/>
            <path fill="#6D7381" fill-opacity=".6" fill-rule="nonzero" d="M12 3c4.971 0 9 4.029 9 9s-4.029 9-9 9-9-4.029-9-9 4.029-9 9-9zm0 7.4l-.145.007c-.765.073-1.355.714-1.355 1.495v3.996c0 .83.672 1.502 1.5 1.502l.145-.007c.765-.073 1.355-.714 1.355-1.495v-3.996c0-.83-.672-1.502-1.5-1.502zm0-4c-.828 0-1.5.672-1.5 1.5s.672 1.5 1.5 1.5 1.5-.672 1.5-1.5-.672-1.5-1.5-1.5z"/>
        </g>
    </g>
</svg>
