<svg xmlns="http://www.w3.org/2000/svg" width="24" height="24" viewBox="0 0 24 24">
    <g fill="none" fill-rule="evenodd">
        <g>
            <path d="M0 0H24V24H0z"/>
            <path fill="#6D7381" d="M6.032 4.349L12 10.317l5.968-5.968c.465-.465 1.219-.465 1.683 0 .465.464.465 1.218 0 1.683L13.683 12l5.968 5.968c.465.465.465 1.219 0 1.683-.464.465-1.218.465-1.683 0L12 13.683l-5.968 5.968c-.465.465-1.219.465-1.683 0-.465-.464-.465-1.218 0-1.683L10.317 12 4.349 6.032c-.465-.465-.465-1.219 0-1.683.464-.465 1.218-.465 1.683 0z"/>
        </g>
    </g>
</svg>
