<svg width="16" height="16" viewBox="0 0 16 16" fill="none" xmlns="http://www.w3.org/2000/svg">
<path fill-rule="evenodd" clip-rule="evenodd" d="M3.03615 1.7636C2.68468 1.41213 2.11483 1.41213 1.76336 1.7636C1.41189 2.11508 1.41189 2.68492 1.76336 3.0364L6.7566 8.02964L1.76437 13.0219C1.41289 13.3733 1.41289 13.9432 1.76437 14.2947C2.11584 14.6461 2.68569 14.6461 3.03716 14.2947L8.02939 9.30243L13.0216 14.2947C13.3731 14.6461 13.943 14.6461 14.2944 14.2947C14.6459 13.9432 14.6459 13.3733 14.2944 13.0219L9.30219 8.02964L14.2954 3.0364C14.6469 2.68492 14.6469 2.11508 14.2954 1.7636C13.944 1.41213 13.3741 1.41213 13.0226 1.7636L8.02939 6.75685L3.03615 1.7636Z" fill="#50545B"/>
</svg>
