<svg xmlns="http://www.w3.org/2000/svg" width="20" height="20" viewBox="0 0 20 20">
    <g fill="none" fill-rule="evenodd">
        <g>
            <g>
                <path d="M0 0H20V20H0z"/>
                <path fill="currentColor" fill-rule="nonzero" d="M16 15.1c.331 0 .6.269.6.6 0 .298-.218.546-.503.592L16 16.3H4c-.331 0-.6-.269-.6-.6 0-.298.218-.546.503-.592L4 15.1h12zM10 3.7c.298 0 .546.218.592.503l.008.097v7.551l3.976-3.975.083-.07c.234-.162.557-.139.765.07.209.208.232.531.07.765l-.07.083-5 5-.082.07c-.204.14-.476.142-.68.002l-.084-.069-5.064-5-.07-.083c-.143-.203-.144-.477-.004-.682l.069-.084.083-.07c.203-.143.476-.144.682-.004l.083.069L9.4 11.866V4.3c0-.331.269-.6.6-.6z"/>
            </g>
        </g>
    </g>
</svg>
