<svg width="20" height="20" viewBox="0 0 20 20" fill="none" xmlns="http://www.w3.org/2000/svg">
<path fill-rule="evenodd" clip-rule="evenodd" d="M13.8647 7.4358C13.657 7.22843 13.3206 7.22843 13.1129 7.4358L9.24623 11.3028L7.23548 9.29205C7.02811 9.08468 6.69136 9.0843 6.48361 9.29205C6.27623 9.49943 6.27623 9.83618 6.48398 10.0439L8.87011 12.4297C8.87011 12.4297 8.87011 12.4301 8.87048 12.4301C8.97398 12.5339 9.11011 12.5857 9.24623 12.5857C9.38236 12.5857 9.51848 12.5339 9.62236 12.4301L13.8647 8.18768C14.0721 7.97993 14.0721 7.64355 13.8647 7.4358Z" fill="#2DA02B"/>
<path d="M13.8647 7.4358C13.657 7.22843 13.3206 7.22843 13.1129 7.4358L9.24623 11.3028L7.23548 9.29205C7.02811 9.08468 6.69136 9.0843 6.48361 9.29205C6.27623 9.49943 6.27623 9.83618 6.48398 10.0439L8.87011 12.4297C8.87011 12.4297 8.87011 12.4301 8.87048 12.4301C8.97398 12.5339 9.11011 12.5857 9.24623 12.5857C9.38236 12.5857 9.51848 12.5339 9.62236 12.4301L13.8647 8.18768C14.0721 7.97993 14.0721 7.64355 13.8647 7.4358" stroke="#2DA02B" stroke-width="0.333333"/>
<circle cx="9.99988" cy="10" r="8" stroke="#2DA02B" stroke-width="1.33333"/>
</svg>
