<svg width="20" height="20" viewBox="0 0 20 20" fill="none" xmlns="http://www.w3.org/2000/svg">
<path d="M11.1462 3.1369C11.0396 2.94548 10.8759 2.78453 10.6735 2.67205C10.4711 2.55957 10.2379 2.5 9.99996 2.5C9.76206 2.5 9.52884 2.55957 9.32641 2.67205C9.12398 2.78453 8.96031 2.94548 8.85371 3.1369L1.80185 15.8302C1.70419 16.0061 1.65809 16.2016 1.66792 16.398C1.67775 16.5944 1.74319 16.7853 1.85802 16.9526C1.97284 17.1198 2.13326 17.2579 2.32404 17.3537C2.51482 17.4496 2.72963 17.4999 2.9481 17.5H17.0518C17.2703 17.4999 17.4851 17.4496 17.6759 17.3537C17.8667 17.2579 18.0271 17.1198 18.1419 16.9526C18.2567 16.7853 18.3222 16.5944 18.332 16.398C18.3418 16.2016 18.2957 16.0061 18.1981 15.8302L11.1462 3.1369Z" stroke="#F59638" stroke-width="1.33333"/>
<path d="M9.99963 8.53418V11.7652" stroke="#F59638" stroke-width="1.33333" stroke-linecap="round" stroke-linejoin="round"/>
<path d="M9.99963 14.1665V14.8975" stroke="#F59638" stroke-width="1.33333" stroke-linecap="round" stroke-linejoin="round"/>
</svg>
