<svg width="20" height="20" viewBox="0 0 20 20" fill="none" xmlns="http://www.w3.org/2000/svg">
<path fill-rule="evenodd" clip-rule="evenodd" d="M4.32845 4.32845C5.83263 2.82428 7.87272 1.97925 9.99994 1.97925C12.1272 1.97925 14.1673 2.82428 15.6714 4.32845C17.1756 5.83263 18.0206 7.87272 18.0206 9.99994C18.0206 12.1272 17.1756 14.1673 15.6714 15.6714C14.1673 17.1756 12.1272 18.0206 9.99994 18.0206C7.87272 18.0206 5.83263 17.1756 4.32845 15.6714C2.82428 14.1673 1.97925 12.1272 1.97925 9.99994C1.97925 7.87272 2.82428 5.83263 4.32845 4.32845ZM9.99994 3.57925C8.29707 3.57925 6.66394 4.25571 5.45983 5.45983C4.25571 6.66394 3.57925 8.29707 3.57925 9.99994C3.57925 11.7028 4.25571 13.3359 5.45983 14.5401C6.66394 15.7442 8.29707 16.4206 9.99994 16.4206C11.7028 16.4206 13.3359 15.7442 14.5401 14.5401C15.7442 13.3359 16.4206 11.7028 16.4206 9.99994C16.4206 8.29707 15.7442 6.66394 14.5401 5.45983C13.3359 4.25571 11.7028 3.57925 9.99994 3.57925ZM9.99994 9.19997C10.4418 9.19997 10.7999 9.55815 10.7999 9.99997V13.6103C10.7999 14.0521 10.4418 14.4103 9.99994 14.4103C9.55812 14.4103 9.19994 14.0521 9.19994 13.6103V9.99997C9.19994 9.55815 9.55812 9.19997 9.99994 9.19997ZM9.51187 6.05154C9.68615 5.93509 9.89104 5.87294 10.1006 5.87294C10.3817 5.87294 10.6513 5.98459 10.85 6.18334C11.0488 6.38209 11.1604 6.65164 11.1604 6.93271C11.1604 7.14231 11.0983 7.3472 10.9818 7.52149C10.8654 7.69577 10.6998 7.8316 10.5062 7.91181C10.3126 7.99202 10.0995 8.01301 9.89389 7.97212C9.68833 7.93123 9.49949 7.8303 9.35127 7.68208C9.20306 7.53387 9.10213 7.34503 9.06124 7.13946C9.02035 6.93389 9.04133 6.7208 9.12154 6.52715C9.20175 6.33351 9.33758 6.168 9.51187 6.05154Z" fill="#1C74DF"/>
</svg>
