<svg xmlns="http://www.w3.org/2000/svg" width="20" height="20" viewBox="0 0 20 20">
    <g fill="none" fill-rule="evenodd">
        <g>
            <path d="M0 0L20 0 20 20 0 20z"/>
            <path fill="#58657f" fill-rule="nonzero" d="M10 6.111c.825 0 1.5-.7 1.5-1.555C11.5 3.7 10.825 3 10 3s-1.5.7-1.5 1.556c0 .855.675 1.555 1.5 1.555zm0 2.333c-.825 0-1.5.7-1.5 1.556 0 .856.675 1.556 1.5 1.556s1.5-.7 1.5-1.556c0-.856-.675-1.556-1.5-1.556zm0 5.445c-.825 0-1.5.7-1.5 1.555C8.5 16.3 9.175 17 10 17s1.5-.7 1.5-1.556c0-.855-.675-1.555-1.5-1.555z"/>
        </g>
    </g>
</svg>
