<svg width="20" height="20" viewBox="0 0 20 20" fill="none" xmlns="http://www.w3.org/2000/svg">
<path fill-rule="evenodd" clip-rule="evenodd" d="M6.28009 5.21987C5.98719 4.92698 5.51232 4.92698 5.21943 5.21987C4.92653 5.51276 4.92653 5.98764 5.21943 6.28053L8.93989 10.001L5.21974 13.7211C4.92685 14.014 4.92685 14.4889 5.21974 14.7818C5.51264 15.0747 5.98751 15.0747 6.2804 14.7818L10.0005 11.0617L13.7207 14.7818C14.0136 15.0747 14.4885 15.0747 14.7814 14.7818C15.0742 14.4889 15.0742 14.014 14.7814 13.7211L11.0612 10.001L14.7817 6.28053C15.0746 5.98764 15.0746 5.51276 14.7817 5.21987C14.4888 4.92698 14.0139 4.92698 13.721 5.21987L10.0005 8.94033L6.28009 5.21987Z" fill="#50545B"/>
</svg>
