<svg width="20" height="20" viewBox="0 0 20 20" fill="none" xmlns="http://www.w3.org/2000/svg">
<path d="M2 10C2 12.1217 2.84285 14.1566 4.34315 15.6569C5.84344 17.1571 7.87827 18 10 18C12.1217 18 14.1566 17.1571 15.6569 15.6569C17.1571 14.1566 18 12.1217 18 10C18 7.87827 17.1571 5.84344 15.6569 4.34315C14.1566 2.84285 12.1217 2 10 2C7.87827 2 5.84344 2.84285 4.34315 4.34315C2.84285 5.84344 2 7.87827 2 10Z" fill="#676879"/>
<path fill-rule="evenodd" clip-rule="evenodd" d="M8.34773 7.28689C8.05485 6.99398 7.57997 6.99397 7.28707 7.28685C6.99417 7.57974 6.99415 8.05461 7.28704 8.34751L8.93969 10.0003L7.28758 11.6525C6.99469 11.9454 6.99471 12.4203 7.28761 12.7131C7.58051 13.006 8.05539 13.006 8.34827 12.7131L10.0003 11.061L11.6524 12.7131C11.9452 13.006 12.4201 13.006 12.713 12.7131C13.0059 12.4203 13.0059 11.9454 12.713 11.6525L11.0609 10.0003L12.7136 8.34751C13.0065 8.05461 13.0065 7.57974 12.7136 7.28685C12.4207 6.99397 11.9458 6.99398 11.6529 7.28689L10.0003 8.93958L8.34773 7.28689Z" fill="white"/>
</svg>
